<?xml version="1.0" standalone="no"?>
<!DOCTYPE svg PUBLIC "-//W3C//DTD SVG 20010904//EN"
 "http://www.w3.org/TR/2001/REC-SVG-20010904/DTD/svg10.dtd">
<svg version="1.0" xmlns="http://www.w3.org/2000/svg"
 width="300.000000pt" height="164.000000pt" viewBox="0 0 300.000000 164.000000"
 preserveAspectRatio="xMidYMid meet">
<metadata>
Created by potrace 1.15, written by Peter Selinger 2001-2017
</metadata>
<g transform="translate(0.000000,164.000000) scale(0.100000,-0.100000)"
fill="#000000" stroke="none">
<path d="M1620 1550 c-13 -18 -28 -50 -34 -72 l-12 -40 -19 41 c-18 42 -56 84
-42 49 4 -12 2 -15 -9 -11 -7 3 -14 0 -14 -6 0 -6 4 -11 8 -11 5 0 14 -12 21
-27 12 -27 12 -27 -6 -10 -11 9 -28 17 -39 17 -14 0 -11 -5 14 -20 18 -11 30
-25 27 -30 -4 -6 1 -13 10 -16 9 -4 21 -17 26 -30 13 -37 36 -29 58 21 12 27
30 50 45 57 17 7 26 19 26 35 0 27 -3 28 -36 7 -35 -23 -40 -11 -14 31 28 45
20 57 -10 15z"/>
<path d="M1074 1058 c-10 -12 -13 -18 -6 -14 16 10 15 -6 -2 -30 -8 -10 -18
-16 -22 -11 -4 4 -2 7 4 7 7 0 12 5 12 11 0 8 -4 8 -13 1 -16 -13 -21 -68 -7
-77 14 -8 13 -42 -2 -51 -7 -5 -8 -2 -3 7 5 8 5 11 0 7 -13 -12 -12 -66 1 -61
7 2 15 0 19 -6 3 -6 17 -11 30 -11 19 0 23 -4 18 -17 -3 -10 -3 -15 1 -11 5 4
10 24 13 45 6 47 19 62 28 34 7 -22 37 -30 34 -8 -3 28 2 37 24 37 13 0 29 -6
37 -12 11 -10 11 -9 0 7 -8 11 -22 26 -31 32 -13 10 -15 20 -9 48 4 20 4 38
-1 41 -5 3 -9 3 -9 -1 0 -3 -13 1 -30 10 -16 9 -30 18 -30 21 0 2 9 0 21 -6
33 -18 31 -7 -2 12 -17 10 -27 13 -24 8 3 -6 -3 -10 -15 -10 -12 0 -18 5 -15
10 11 18 -1 11 -21 -12z"/>
<path d="M2040 955 c-7 -8 -21 -15 -31 -15 -21 0 -43 -35 -35 -56 3 -7 -3 -18
-14 -24 -23 -12 -27 -32 -5 -24 22 9 29 -21 10 -49 -11 -17 -13 -27 -6 -32 10
-6 15 1 12 18 0 4 7 7 17 7 10 0 23 5 29 11 8 8 11 3 9 -18 -2 -30 -1 -30 34
-21 19 5 43 9 53 9 9 0 17 5 17 10 0 6 -5 7 -10 4 -12 -7 -34 46 -23 54 26 20
35 41 23 56 -7 8 -20 30 -29 47 -19 38 -33 44 -51 23z"/>
<path d="M2900 810 c-10 -19 -12 -19 -34 -5 -21 14 -25 14 -39 1 -12 -12 -17
-13 -20 -3 -4 9 -6 9 -6 0 -1 -6 4 -15 9 -18 6 -3 10 -11 10 -16 0 -6 -5 -7
-12 -3 -7 4 -8 3 -4 -5 4 -6 11 -9 16 -6 19 12 17 -25 -3 -38 l-22 -15 24 -26
c27 -29 56 -34 65 -11 3 8 20 24 38 35 34 21 65 28 38 9 -13 -9 -13 -10 0 -6
8 2 15 10 15 18 1 8 5 13 11 12 5 -1 10 7 10 17 0 10 -3 17 -7 14 -4 -2 -13 4
-20 13 -10 12 -10 14 -1 9 16 -9 15 4 -2 27 -18 23 -53 22 -66 -3z"/>
<path d="M120 810 c-8 -5 -17 -7 -21 -4 -4 2 -11 -1 -15 -7 -4 -8 -3 -9 4 -5
8 5 12 -1 12 -16 0 -15 -3 -19 -8 -10 -5 7 -22 16 -38 21 -28 8 -30 7 -32 -20
-1 -15 2 -30 8 -34 5 -3 10 -12 10 -18 0 -8 -3 -7 -9 2 -7 10 -9 7 -8 -12 1
-14 4 -25 7 -25 3 1 22 -6 42 -15 21 -10 45 -17 54 -17 10 0 26 -8 36 -17 18
-16 20 -16 37 3 11 10 22 29 26 42 6 19 2 25 -24 35 -28 10 -31 15 -29 52 l1
40 4 -37 c2 -21 8 -38 12 -38 4 0 5 17 2 38 -4 20 -11 36 -16 35 -6 0 -17 3
-26 7 -8 5 -21 5 -29 0z"/>
<path d="M1786 763 c-10 -26 -29 -76 -42 -111 -13 -34 -24 -72 -24 -84 0 -12
-2 -19 -5 -16 -3 3 -34 0 -68 -8 -34 -7 -71 -12 -82 -11 -15 2 -20 -4 -19 -22
1 -21 -2 -23 -33 -18 -20 4 -33 2 -33 -5 0 -6 -6 -6 -15 2 -9 7 -18 11 -20 8
-3 -2 9 -15 26 -27 l31 -23 -7 23 c-6 20 -5 22 6 12 7 -7 22 -13 34 -14 11 0
14 -3 7 -6 -6 -2 -9 -9 -6 -14 3 -6 11 -6 17 -1 7 5 22 4 37 -4 14 -8 20 -14
13 -14 -7 0 -10 -6 -7 -14 3 -7 -2 -16 -10 -19 -9 -4 -13 -13 -10 -22 5 -11 0
-15 -18 -15 -32 0 -48 18 -48 52 0 17 -5 28 -14 28 -8 0 -16 5 -18 12 -2 6
-11 9 -18 6 -11 -4 -7 -9 13 -18 19 -9 26 -19 22 -31 -3 -9 -1 -20 5 -24 5 -3
10 -22 10 -41 0 -22 6 -37 15 -40 8 -4 15 -10 15 -16 0 -5 -6 -6 -12 -1 -7 4
-22 6 -34 5 -11 -2 -39 1 -62 6 -34 8 -44 7 -51 -6 -5 -9 -15 -13 -25 -9 -20
8 -21 27 -2 27 7 0 19 7 27 16 10 13 10 17 -1 24 -18 11 -33 2 -26 -15 2 -7
-2 -16 -10 -19 -23 -9 -24 -8 -18 12 5 13 4 14 -4 3 -11 -15 -4 -51 10 -51 5
0 15 -6 22 -12 7 -7 27 -24 44 -38 18 -14 32 -27 32 -31 0 -11 -83 -9 -97 3
-20 16 -413 23 -446 8 -20 -9 -20 -9 -3 2 10 7 37 25 60 40 58 38 83 84 68
128 -7 18 -9 36 -6 41 7 12 -9 12 -21 0 -6 -5 -21 -11 -35 -13 -24 -3 -25 -2
-22 60 2 50 11 78 37 130 22 42 35 80 35 105 0 54 -23 43 -30 -14 -5 -45 -45
-124 -75 -149 -13 -11 -14 -10 -9 5 5 12 4 16 -3 12 -6 -4 -28 -9 -49 -13 -20
-3 -48 -10 -61 -15 -14 -5 -36 -9 -49 -9 -21 0 -24 -4 -19 -20 5 -17 2 -20
-27 -21 -31 0 -31 -1 -11 -11 16 -7 38 -8 73 -1 53 11 64 8 28 -7 l-23 -9 22
0 c33 -1 36 -17 8 -45 -14 -14 -25 -30 -25 -36 0 -14 -53 -13 -68 2 -7 7 -12
22 -12 35 0 13 -4 23 -8 23 -12 0 -8 -30 7 -58 6 -12 9 -27 6 -32 -11 -17 6
-52 21 -46 8 3 14 0 14 -7 0 -9 -11 -12 -32 -10 -141 12 -150 11 -155 -8 -3
-10 -10 -19 -16 -19 -6 0 11 -16 36 -36 26 -20 44 -40 41 -45 -3 -5 -35 -9
-72 -9 -72 0 -111 -13 -79 -26 10 -3 35 -4 56 -1 33 4 38 2 34 -13 -3 -12 2
-20 15 -25 26 -8 489 12 562 25 30 5 98 18 150 29 103 23 170 27 170 11 0 -5
4 -10 10 -10 5 0 7 6 4 14 -4 11 0 13 16 9 21 -6 20 -7 -12 -27 -19 -12 -33
-27 -31 -33 3 -7 -3 -13 -12 -13 -9 0 -13 -4 -10 -10 15 -25 492 -3 565 26 34
13 170 43 221 48 46 5 50 4 26 -5 -77 -30 26 -57 227 -60 149 -1 312 12 359
30 14 5 68 13 121 17 53 4 96 11 96 15 0 5 -34 6 -77 2 -57 -5 -74 -3 -69 5 4
8 -3 16 -20 23 -38 14 -223 27 -257 18 -16 -5 -25 -4 -22 2 4 5 14 9 23 9 9 0
30 7 46 15 16 9 31 13 34 10 10 -9 41 27 35 41 -3 8 1 14 10 14 8 0 18 7 21
16 9 24 7 34 -6 30 -7 -1 -10 -1 -5 2 4 2 12 13 18 24 7 13 7 18 1 14 -7 -4
-9 7 -7 31 4 31 3 33 -3 9 -7 -29 -12 -33 -67 -57 -36 -16 -63 -20 -91 -14
-17 4 -20 11 -19 47 1 37 8 47 55 91 30 27 56 44 58 38 6 -18 17 -13 34 17 17
29 14 72 -5 72 -10 0 -73 -48 -135 -104 -36 -33 -43 -35 -155 -40 -43 -2 -81
-6 -83 -9 -3 -3 -27 4 -55 14 -29 11 -49 15 -49 8 0 -27 -22 9 -39 66 -11 35
-29 81 -40 102 l-20 38 -1 -32 c0 -18 4 -33 8 -33 12 0 62 -126 62 -155 0 -14
3 -25 8 -25 4 0 5 -24 4 -54 -3 -44 -8 -58 -27 -70 -13 -9 -25 -11 -27 -6 -2
6 -9 1 -16 -11 -8 -12 -9 -18 -3 -14 6 3 12 0 12 -7 1 -7 2 -17 4 -23 1 -5 3
-14 3 -19 1 -5 9 -3 18 4 11 10 14 10 12 1 -2 -7 17 -23 42 -37 25 -13 39 -24
32 -24 -7 0 -23 5 -34 11 -36 19 -79 24 -213 24 -155 0 -242 -8 -273 -24 -12
-6 -22 -9 -22 -7 0 3 15 13 33 22 17 9 45 28 62 43 16 14 23 18 15 7 -9 -13
-10 -17 -3 -12 7 4 18 16 24 28 6 11 7 18 2 15 -4 -3 -7 21 -6 54 2 59 -8 79
-30 61 -7 -5 -25 -12 -42 -16 -16 -4 -25 -3 -20 1 6 4 11 41 12 81 2 89 26
177 56 206 23 21 55 82 38 72 -5 -3 -11 1 -14 9 -4 10 -1 12 11 9 12 -4 11 -2
-3 7 -11 7 -23 16 -26 21 -3 5 -14 -13 -23 -39z"/>
<path d="M2250 621 c0 -32 26 -78 53 -93 27 -15 147 -14 176 1 33 18 66 91 40
91 -5 0 -7 -5 -3 -11 5 -9 -25 -10 -117 -6 -101 5 -126 10 -136 24 -12 15 -13
15 -13 -6z"/>
</g>
</svg>
